<?xml version="1.0" encoding="UTF-8" standalone="no"?>
<!DOCTYPE svg PUBLIC "-//W3C//DTD SVG 1.1//EN" "http://www.w3.org/Graphics/SVG/1.1/DTD/svg11.dtd">
<svg version="1.1" xmlns="http://www.w3.org/2000/svg" xmlns:xlink="http://www.w3.org/1999/xlink" preserveAspectRatio="xMidYMid meet" viewBox="0 0 640 640" width="640" height="640"><defs><path d="M640 0C640 0 640 0 640 0C640 384 640 597.33 640 640C640 640 640 640 640 640C256 640 42.67 640 0 640C0 640 0 640 0 640C0 256 0 42.67 0 0C0 0 0 0 0 0C384 0 597.33 0 640 0Z" id="a1HSnBn0bV"></path><path d="M516.83 461.24L475.7 500.88L430.9 543.97L430.44 544.41C271.12 544.41 182.62 544.41 164.92 544.41C154.06 544.41 144.27 540.43 136.86 533.88C135.86 533.06 134.95 532.18 134.11 531.22C127.3 524.08 123.17 514.58 123.17 504.12C123.17 467.29 123.17 172.64 123.17 135.81C123.17 133.23 123.4 130.73 123.94 128.22C127.61 109.66 144.58 95.59 164.92 95.59C195.93 95.59 444.07 95.59 475.09 95.59C491.22 95.59 505.28 104.5 512.17 117.47C513.69 120.34 514.92 123.36 515.68 126.6C516.45 129.55 516.83 132.64 516.83 135.81C516.83 179.2 516.83 287.68 516.83 461.24Z" id="bmQxyzVuL"></path><linearGradient id="gradientc6WCZhBmU" gradientUnits="userSpaceOnUse" x1="123.17" y1="320" x2="516.83" y2="320"><stop style="stop-color: #fcfad7;stop-opacity: 1" offset="10.14%"></stop><stop style="stop-color: #fdfded;stop-opacity: 1" offset="100%"></stop></linearGradient><path d="M293.05 544.39L429.83 544.39L430.44 544.21L430.9 544.03L430.44 476.88L293.05 544.39Z" id="fnVmBbwiY"></path><path d="M514.09 286.13C514.09 286.13 514.09 286.13 514.09 286.13C514.09 289.14 514.09 290.8 514.09 291.14C514.09 291.14 514.09 291.14 514.09 291.14C281.16 291.14 151.75 291.14 125.87 291.14C125.87 291.14 125.87 291.14 125.87 291.14C125.87 288.13 125.87 286.47 125.87 286.13C125.87 286.13 125.87 286.13 125.87 286.13C358.8 286.13 488.21 286.13 514.09 286.13Z" id="asr4598iA"></path><path d="M514.09 284.88C514.09 284.88 514.09 284.88 514.09 284.88C514.09 287.88 514.09 289.55 514.09 289.89C514.09 289.89 514.09 289.89 514.09 289.89C281.16 289.89 151.75 289.89 125.87 289.89C125.87 289.89 125.87 289.89 125.87 289.89C125.87 286.88 125.87 285.21 125.87 284.88C125.87 284.88 125.87 284.88 125.87 284.88C358.8 284.88 488.21 284.88 514.09 284.88Z" id="ab0QeKIkl"></path><path d="M514.09 233.71C514.09 233.71 514.09 233.71 514.09 233.71C514.09 236.71 514.09 238.38 514.09 238.71C514.09 238.71 514.09 238.71 514.09 238.71C281.16 238.71 151.75 238.71 125.87 238.71C125.87 238.71 125.87 238.71 125.87 238.71C125.87 235.71 125.87 234.04 125.87 233.71C125.87 233.71 125.87 233.71 125.87 233.71C358.8 233.71 488.21 233.71 514.09 233.71Z" id="at8k6O8J4"></path><path d="M514.09 232.46C514.09 232.46 514.09 232.46 514.09 232.46C514.09 235.46 514.09 237.13 514.09 237.46C514.09 237.46 514.09 237.46 514.09 237.46C281.16 237.46 151.75 237.46 125.87 237.46C125.87 237.46 125.87 237.46 125.87 237.46C125.87 234.46 125.87 232.79 125.87 232.46C125.87 232.46 125.87 232.46 125.87 232.46C358.8 232.46 488.21 232.46 514.09 232.46Z" id="a1hRczJbnu"></path><path d="M514.09 338.56C514.09 338.56 514.09 338.56 514.09 338.56C514.09 341.56 514.09 343.23 514.09 343.56C514.09 343.56 514.09 343.56 514.09 343.56C281.16 343.56 151.75 343.56 125.87 343.56C125.87 343.56 125.87 343.56 125.87 343.56C125.87 340.56 125.87 338.89 125.87 338.56C125.87 338.56 125.87 338.56 125.87 338.56C358.8 338.56 488.21 338.56 514.09 338.56Z" id="b1NehZnz"></path><path d="M514.09 337.31C514.09 337.31 514.09 337.31 514.09 337.31C514.09 340.31 514.09 341.98 514.09 342.31C514.09 342.31 514.09 342.31 514.09 342.31C281.16 342.31 151.75 342.31 125.87 342.31C125.87 342.31 125.87 342.31 125.87 342.31C125.87 339.31 125.87 337.64 125.87 337.31C125.87 337.31 125.87 337.31 125.87 337.31C358.8 337.31 488.21 337.31 514.09 337.31Z" id="gcxHYb7BP"></path><path d="M514.09 390.98C514.09 390.98 514.09 390.98 514.09 390.98C514.09 393.98 514.09 395.65 514.09 395.98C514.09 395.98 514.09 395.98 514.09 395.98C281.16 395.98 151.75 395.98 125.87 395.98C125.87 395.98 125.87 395.98 125.87 395.98C125.87 392.98 125.87 391.31 125.87 390.98C125.87 390.98 125.87 390.98 125.87 390.98C358.8 390.98 488.21 390.98 514.09 390.98Z" id="e8J8lTLRjW"></path><path d="M514.09 389.73C514.09 389.73 514.09 389.73 514.09 389.73C514.09 392.73 514.09 394.4 514.09 394.73C514.09 394.73 514.09 394.73 514.09 394.73C281.16 394.73 151.75 394.73 125.87 394.73C125.87 394.73 125.87 394.73 125.87 394.73C125.87 391.73 125.87 390.06 125.87 389.73C125.87 389.73 125.87 389.73 125.87 389.73C358.8 389.73 488.21 389.73 514.09 389.73Z" id="av1Jd0UO"></path><path d="M514.09 443.4C514.09 443.4 514.09 443.4 514.09 443.4C514.09 446.41 514.09 448.07 514.09 448.41C514.09 448.41 514.09 448.41 514.09 448.41C281.16 448.41 151.75 448.41 125.87 448.41C125.87 448.41 125.87 448.41 125.87 448.41C125.87 445.4 125.87 443.74 125.87 443.4C125.87 443.4 125.87 443.4 125.87 443.4C358.8 443.4 488.21 443.4 514.09 443.4Z" id="ejmEAV0SV"></path><path d="M514.09 442.15C514.09 442.15 514.09 442.15 514.09 442.15C514.09 445.15 514.09 446.82 514.09 447.16C514.09 447.16 514.09 447.16 514.09 447.16C281.16 447.16 151.75 447.16 125.87 447.16C125.87 447.16 125.87 447.16 125.87 447.16C125.87 444.15 125.87 442.48 125.87 442.15C125.87 442.15 125.87 442.15 125.87 442.15C358.8 442.15 488.21 442.15 514.09 442.15Z" id="b3TWdXab1t"></path><path d="M475.7 500.85L125.85 500.85L125.85 495.84L480.89 495.84L475.7 500.85Z" id="a2JIE49qf"></path><path d="M477 499.6L125.85 499.6L125.85 494.59L482.19 494.59L477 499.6Z" id="a9wiCp7QYW"></path><path d="M188.58 187.3C188.58 187.3 188.58 187.3 188.58 187.3C188.58 401.57 188.58 520.6 188.58 544.41C188.58 544.41 188.58 544.41 188.58 544.41C180.88 544.41 176.6 544.41 175.74 544.41C175.74 544.41 175.74 544.41 175.74 544.41C175.74 330.14 175.74 211.11 175.74 187.3C175.74 187.3 175.74 187.3 175.74 187.3C183.45 187.3 187.73 187.3 188.58 187.3Z" id="a4aobm7NFL"></path><path d="M186.22 187.3C186.22 187.3 186.22 187.3 186.22 187.3C186.22 401.57 186.22 520.6 186.22 544.41C186.22 544.41 186.22 544.41 186.22 544.41C178.92 544.41 174.87 544.41 174.06 544.41C174.06 544.41 174.06 544.41 174.06 544.41C174.06 330.14 174.06 211.11 174.06 187.3C174.06 187.3 174.06 187.3 174.06 187.3C181.35 187.3 185.41 187.3 186.22 187.3Z" id="a2tFUru8YZ"></path><path d="M475.7 500.85L430.44 544.39L430.44 461.22L516.83 461.22L475.7 500.85Z" id="aDzBP5HGl"></path><linearGradient id="gradientaiwpGAgTu" gradientUnits="userSpaceOnUse" x1="430.44" y1="502.81" x2="516.83" y2="502.81"><stop style="stop-color: #faf7c2;stop-opacity: 1" offset="10.63%"></stop><stop style="stop-color: #faf9d0;stop-opacity: 1" offset="100%"></stop></linearGradient><path d="M516.83 187.3L123.17 187.3C123.17 151.85 123.17 132.16 123.17 128.22C126.86 109.66 143.91 95.59 164.35 95.59C195.52 95.59 444.86 95.59 476.03 95.59C495.86 95.59 512.53 108.85 516.83 126.6C516.83 134.7 516.83 154.93 516.83 187.3Z" id="b7pK7msOs"></path><linearGradient id="gradiente3hibtIJQh" gradientUnits="userSpaceOnUse" x1="123.17" y1="141.45" x2="516.83" y2="141.45"><stop style="stop-color: #745833;stop-opacity: 1" offset="3.38%"></stop><stop style="stop-color: #796b56;stop-opacity: 1" offset="64.73%"></stop><stop style="stop-color: #765d3c;stop-opacity: 1" offset="98.07000000000001%"></stop></linearGradient><path d="M515.65 131.41C511.37 113.66 494.78 100.4 475.06 100.4C444.04 100.4 195.9 100.4 164.89 100.4C144.55 100.4 127.58 114.47 123.91 133.03C123.91 132.6 123.91 129.12 123.91 128.69C127.58 110.12 144.55 96.06 164.89 96.06C195.9 96.06 444.04 96.06 475.05 96.06C494.78 96.06 511.37 109.31 515.65 127.07C515.65 127.94 515.65 130.98 515.65 131.41Z" id="bwXXpYX2I"></path><path d="M547.55 267.33C524.13 267.33 336.79 267.33 313.38 267.33C302.84 267.33 292.9 264.48 284.35 259.54C267.05 249.54 255.44 230.84 255.44 209.45C255.44 185.15 270.43 164.35 291.66 155.81C287.09 147.53 284.46 138.02 284.46 127.91C284.46 95.93 310.42 70.03 342.4 70.03C360.67 70.03 377.01 78.52 387.6 91.79C402.06 63.09 431.62 43.26 465.8 42.72C465.94 42.72 467.06 42.72 467.2 42.72C488.48 42.72 508.05 50.19 523.36 62.66C528.15 66.53 532.55 70.89 536.42 75.72C548.89 91.04 556.37 110.55 556.37 131.84C556.37 138.77 555.56 145.49 554.05 151.94C582.97 155.16 605.44 179.67 605.44 209.45C605.44 241.43 579.53 267.33 547.55 267.33Z" id="f84nvCKhzs"></path></defs><g><g><g><use xlink:href="#a1HSnBn0bV" opacity="1" fill="#a0d7dc" fill-opacity="1"></use><g><use xlink:href="#a1HSnBn0bV" opacity="1" fill-opacity="0" stroke="#000000" stroke-width="1" stroke-opacity="0"></use></g></g><g><use xlink:href="#bmQxyzVuL" opacity="1" fill="url(#gradientc6WCZhBmU)"></use><g><use xlink:href="#bmQxyzVuL" opacity="1" fill-opacity="0" stroke="#000000" stroke-width="1" stroke-opacity="0"></use></g></g><g><use xlink:href="#fnVmBbwiY" opacity="1" fill="#8d8275" fill-opacity="1"></use><g><use xlink:href="#fnVmBbwiY" opacity="1" fill-opacity="0" stroke="#000000" stroke-width="1" stroke-opacity="0"></use></g></g><g><use xlink:href="#asr4598iA" opacity="1" fill="#ffffff" fill-opacity="1"></use><g><use xlink:href="#asr4598iA" opacity="1" fill-opacity="0" stroke="#000000" stroke-width="1" stroke-opacity="0"></use></g></g><g><use xlink:href="#ab0QeKIkl" opacity="1" fill="#aea983" fill-opacity="1"></use><g><use xlink:href="#ab0QeKIkl" opacity="1" fill-opacity="0" stroke="#000000" stroke-width="1" stroke-opacity="0"></use></g></g><g><use xlink:href="#at8k6O8J4" opacity="1" fill="#ffffff" fill-opacity="1"></use><g><use xlink:href="#at8k6O8J4" opacity="1" fill-opacity="0" stroke="#000000" stroke-width="1" stroke-opacity="0"></use></g></g><g><use xlink:href="#a1hRczJbnu" opacity="1" fill="#aea983" fill-opacity="1"></use><g><use xlink:href="#a1hRczJbnu" opacity="1" fill-opacity="0" stroke="#000000" stroke-width="1" stroke-opacity="0"></use></g></g><g><use xlink:href="#b1NehZnz" opacity="1" fill="#ffffff" fill-opacity="1"></use><g><use xlink:href="#b1NehZnz" opacity="1" fill-opacity="0" stroke="#000000" stroke-width="1" stroke-opacity="0"></use></g></g><g><use xlink:href="#gcxHYb7BP" opacity="1" fill="#aea983" fill-opacity="1"></use><g><use xlink:href="#gcxHYb7BP" opacity="1" fill-opacity="0" stroke="#000000" stroke-width="1" stroke-opacity="0"></use></g></g><g><use xlink:href="#e8J8lTLRjW" opacity="1" fill="#ffffff" fill-opacity="1"></use><g><use xlink:href="#e8J8lTLRjW" opacity="1" fill-opacity="0" stroke="#000000" stroke-width="1" stroke-opacity="0"></use></g></g><g><use xlink:href="#av1Jd0UO" opacity="1" fill="#aea983" fill-opacity="1"></use><g><use xlink:href="#av1Jd0UO" opacity="1" fill-opacity="0" stroke="#000000" stroke-width="1" stroke-opacity="0"></use></g></g><g><use xlink:href="#ejmEAV0SV" opacity="1" fill="#ffffff" fill-opacity="1"></use><g><use xlink:href="#ejmEAV0SV" opacity="1" fill-opacity="0" stroke="#000000" stroke-width="1" stroke-opacity="0"></use></g></g><g><use xlink:href="#b3TWdXab1t" opacity="1" fill="#aea983" fill-opacity="1"></use><g><use xlink:href="#b3TWdXab1t" opacity="1" fill-opacity="0" stroke="#000000" stroke-width="1" stroke-opacity="0"></use></g></g><g><use xlink:href="#a2JIE49qf" opacity="1" fill="#ffffff" fill-opacity="1"></use><g><use xlink:href="#a2JIE49qf" opacity="1" fill-opacity="0" stroke="#000000" stroke-width="1" stroke-opacity="0"></use></g></g><g><use xlink:href="#a9wiCp7QYW" opacity="1" fill="#aea983" fill-opacity="1"></use><g><use xlink:href="#a9wiCp7QYW" opacity="1" fill-opacity="0" stroke="#000000" stroke-width="1" stroke-opacity="0"></use></g></g><g><use xlink:href="#a4aobm7NFL" opacity="1" fill="#ffffff" fill-opacity="1"></use><g><use xlink:href="#a4aobm7NFL" opacity="1" fill-opacity="0" stroke="#000000" stroke-width="1" stroke-opacity="0"></use></g></g><g><use xlink:href="#a2tFUru8YZ" opacity="1" fill="#cbb12c" fill-opacity="1"></use><g><use xlink:href="#a2tFUru8YZ" opacity="1" fill-opacity="0" stroke="#000000" stroke-width="1" stroke-opacity="0"></use></g></g><g><use xlink:href="#aDzBP5HGl" opacity="1" fill="url(#gradientaiwpGAgTu)"></use><g><use xlink:href="#aDzBP5HGl" opacity="1" fill-opacity="0" stroke="#000000" stroke-width="1" stroke-opacity="0"></use></g></g><g><use xlink:href="#b7pK7msOs" opacity="1" fill="url(#gradiente3hibtIJQh)"></use><g><use xlink:href="#b7pK7msOs" opacity="1" fill-opacity="0" stroke="#000000" stroke-width="1" stroke-opacity="0"></use></g></g><g><use xlink:href="#bwXXpYX2I" opacity="1" fill="#9a8772" fill-opacity="1"></use><g><use xlink:href="#bwXXpYX2I" opacity="1" fill-opacity="0" stroke="#000000" stroke-width="1" stroke-opacity="0"></use></g></g><g><g><filter id="shadow9713036" x="246.44" y="33.72" width="369" height="243.61" filterUnits="userSpaceOnUse" primitiveUnits="userSpaceOnUse"><feFlood></feFlood><feComposite in2="SourceAlpha" operator="in"></feComposite><feGaussianBlur stdDeviation="1"></feGaussianBlur><feOffset dx="1" dy="1" result="afterOffset"></feOffset><feFlood flood-color="#000000" flood-opacity="0.5"></feFlood><feComposite in2="afterOffset" operator="in"></feComposite><feMorphology operator="dilate" radius="1"></feMorphology><feComposite in2="SourceAlpha" operator="out"></feComposite></filter><path d="M547.55 267.33C524.13 267.33 336.79 267.33 313.38 267.33C302.84 267.33 292.9 264.48 284.35 259.54C267.05 249.54 255.44 230.84 255.44 209.45C255.44 185.15 270.43 164.35 291.66 155.81C287.09 147.53 284.46 138.02 284.46 127.91C284.46 95.93 310.42 70.03 342.4 70.03C360.67 70.03 377.01 78.52 387.6 91.79C402.06 63.09 431.62 43.26 465.8 42.72C465.94 42.72 467.06 42.72 467.2 42.72C488.48 42.72 508.05 50.19 523.36 62.66C528.15 66.53 532.55 70.89 536.42 75.72C548.89 91.04 556.37 110.55 556.37 131.84C556.37 138.77 555.56 145.49 554.05 151.94C582.97 155.16 605.44 179.67 605.44 209.45C605.44 241.43 579.53 267.33 547.55 267.33Z" id="b3Qbzj0Nd" fill="white" fill-opacity="1" filter="url(#shadow9713036)"></path></g><use xlink:href="#f84nvCKhzs" opacity="1" fill="#ffffff" fill-opacity="1"></use><g><use xlink:href="#f84nvCKhzs" opacity="1" fill-opacity="0" stroke="#046fb0" stroke-width="1" stroke-opacity="1"></use></g></g></g></g></svg>